<?xml version="1.0" encoding="iso-8859-1"?>
<!-- Generator: Adobe Illustrator 19.2.1, SVG Export Plug-In . SVG Version: 6.00 Build 0)  -->
<svg version="1.1" xmlns="http://www.w3.org/2000/svg" xmlns:xlink="http://www.w3.org/1999/xlink" x="0px" y="0px"
	 viewBox="0 0 30 30" style="enable-background:new 0 0 30 30;" xml:space="preserve">
<g id="Credit_Card">
</g>
<g id="Banknote">
</g>
<g id="Wallet">
</g>
<g id="Compass">
</g>
<g id="Camera_1">
</g>
<g id="Photo">
</g>
<g id="Picture">
</g>
<g id="Camera_2">
</g>
<g id="No_Camera">
</g>
<g id="Video">
</g>
<g id="Audio">
</g>
<g id="Microphone_1">
</g>
<g id="Microphone_2">
</g>
<g id="No_Microphone">
</g>
<g id="Shopping_Cart">
</g>
<g id="Add_Shopping_Cart">
</g>
<g id="Remove_Shopping_Cart">
</g>
<g id="Shopping_Basket">
</g>
<g id="Jing-Jang">
</g>
<g id="Leaf">
</g>
<g id="Glass">
</g>
<g id="Cup">
</g>
<g id="Mug">
</g>
<g id="Refresh">
</g>
<g id="Login">
</g>
<g id="Logout">
</g>
<g id="Flowchart">
</g>
<g id="Pin_1">
</g>
<g id="Pin_2">
</g>
<g id="User_1">
</g>
<g id="User_2">
</g>
<g id="Users">
	<g>
		<g>
			<path d="M14.5,14c-2.481,0-4.5-2.019-4.5-4.5S12.019,5,14.5,5S19,7.019,19,9.5S16.981,14,14.5,14z M14.5,6
				C12.57,6,11,7.57,11,9.5s1.57,3.5,3.5,3.5S18,11.43,18,9.5S16.43,6,14.5,6z"/>
		</g>
		<g>
			<path d="M24,16c-1.654,0-3-1.346-3-3s1.346-3,3-3s3,1.346,3,3S25.654,16,24,16z M24,11c-1.103,0-2,0.897-2,2s0.897,2,2,2
				s2-0.897,2-2S25.103,11,24,11z"/>
		</g>
		<g>
			<path d="M5,16c-1.654,0-3-1.346-3-3s1.346-3,3-3s3,1.346,3,3S6.654,16,5,16z M5,11c-1.103,0-2,0.897-2,2s0.897,2,2,2s2-0.897,2-2
				S6.103,11,5,11z"/>
		</g>
		<g>
			<path d="M22.5,24c-0.276,0-0.5-0.224-0.5-0.5c0-4.136-3.364-7.5-7.5-7.5S7,19.364,7,23.5C7,23.776,6.776,24,6.5,24
				S6,23.776,6,23.5c0-4.687,3.813-8.5,8.5-8.5s8.5,3.813,8.5,8.5C23,23.776,22.776,24,22.5,24z"/>
		</g>
		<g>
			<path d="M28.5,24c-0.276,0-0.5-0.224-0.5-0.5c0-2.531-2.059-4.59-4.59-4.59c-0.737,0-1.441,0.17-2.091,0.505
				c-0.245,0.127-0.547,0.03-0.674-0.216c-0.126-0.246-0.029-0.547,0.216-0.673c0.794-0.409,1.651-0.616,2.549-0.616
				c3.082,0,5.59,2.508,5.59,5.59C29,23.776,28.776,24,28.5,24z"/>
		</g>
		<g>
			<path d="M0.5,24C0.224,24,0,23.776,0,23.5c0-3.082,2.508-5.59,5.59-5.59c0.898,0,1.755,0.207,2.549,0.616
				c0.245,0.126,0.342,0.428,0.216,0.673c-0.126,0.246-0.427,0.342-0.674,0.216C7.031,19.08,6.327,18.91,5.59,18.91
				C3.059,18.91,1,20.969,1,23.5C1,23.776,0.776,24,0.5,24z"/>
		</g>
	</g>
</g>
<g id="Adjustments">
</g>
<g id="Type">
</g>
<g id="Format_Size">
</g>
<g id="Menu_1">
</g>
<g id="Other">
</g>
<g id="Flash">
</g>
<g id="No_Flash">
</g>
<g id="Switch_Button_1">
</g>
<g id="Switch_Button_2">
</g>
<g id="Cut">
</g>
<g id="Crop">
</g>
<g id="Sun">
</g>
<g id="USB">
</g>
<g id="Pie_Chart_1">
</g>
<g id="Pie_Chart_2">
</g>
<g id="Line_Chart">
</g>
<g id="Bar_Chart">
</g>
<g id="Target">
</g>
<g id="Flashlight">
</g>
<g id="USB_Device">
</g>
<g id="Eject">
</g>
<g id="Lightbulb">
</g>
<g id="Information">
</g>
<g id="Deactivate_Protection">
</g>
<g id="Active_Protection">
</g>
<g id="Bug">
</g>
<g id="Protection">
</g>
<g id="Phone">
</g>
<g id="List">
</g>
<g id="Plugin_1">
</g>
<g id="Bookmarrk">
</g>
<g id="Handshake">
</g>
<g id="Minimize">
</g>
<g id="Maximize">
</g>
<g id="Diamond">
</g>
<g id="Stop">
</g>
<g id="Shuffle">
</g>
<g id="Undo">
</g>
<g id="Upgrade">
</g>
<g id="Coding">
</g>
<g id="Syncronizaion">
</g>
<g id="Radio">
</g>
<g id="Presentation">
</g>
<g id="Door">
</g>
<g id="Thumbs_Up">
</g>
<g id="Thumbs_Down">
</g>
<g id="Keyboard">
</g>
<g id="_x33_D_Cube">
</g>
<g id="Signal">
</g>
<g id="Dice">
</g>
<g id="Upload">
</g>
<g id="Download">
</g>
<g id="Plugin_2">
</g>
<g id="Shopping_Bag">
</g>
<g id="Lifebelt">
</g>
<g id="Glasses">
</g>
<g id="Parabolic_Antenna">
</g>
<g id="Loudspeaker">
</g>
<g id="Play">
</g>
<g id="Pause">
</g>
<g id="Signpost">
</g>
<g id="Bluetooth">
</g>
<g id="Present">
</g>
<g id="Ruler">
</g>
<g id="Connection">
</g>
<g id="Money">
</g>
<g id="Paper_Plane">
</g>
<g id="Wallet_2">
</g>
</svg>
